<mxfile host="app.diagrams.net" agent="Mozilla/5.0 (X11; Linux x86_64) AppleWebKit/537.36 (KHTML, like Gecko) Chrome/130.0.0.0 Safari/537.36" version="24.8.6">
  <diagram name="Страница — 1" id="AXsai2kU39kJCIqh6W1E">
    <mxGraphModel dx="681" dy="838" grid="1" gridSize="10" guides="1" tooltips="1" connect="1" arrows="1" fold="1" page="1" pageScale="1" pageWidth="827" pageHeight="1169" background="none" math="0" shadow="0">
      <root>
        <mxCell id="0" />
        <mxCell id="1" parent="0" />
        <mxCell id="beTaWPcCnV1Fygs6UFOP-15" style="edgeStyle=orthogonalEdgeStyle;rounded=1;orthogonalLoop=1;jettySize=auto;html=1;entryX=1;entryY=0.75;entryDx=0;entryDy=0;exitX=0.172;exitY=0.971;exitDx=0;exitDy=0;exitPerimeter=0;" parent="1" source="0iJNT-V-MZooK8iTx7gU-1" edge="1">
          <mxGeometry relative="1" as="geometry">
            <mxPoint x="515" y="710" as="sourcePoint" />
            <mxPoint x="260" y="938.68" as="targetPoint" />
            <Array as="points">
              <mxPoint x="515" y="939" />
            </Array>
          </mxGeometry>
        </mxCell>
        <mxCell id="beTaWPcCnV1Fygs6UFOP-16" value="&lt;font style=&quot;font-size: 13px;&quot;&gt;Информация об ответных&lt;/font&gt;&lt;div style=&quot;font-size: 13px;&quot;&gt;&lt;font style=&quot;font-size: 13px;&quot;&gt;действиях&lt;/font&gt;&lt;/div&gt;" style="edgeLabel;html=1;align=center;verticalAlign=middle;resizable=0;points=[];rounded=1;" parent="beTaWPcCnV1Fygs6UFOP-15" vertex="1" connectable="0">
          <mxGeometry x="-0.2052" y="-1" relative="1" as="geometry">
            <mxPoint x="-99" y="54" as="offset" />
          </mxGeometry>
        </mxCell>
        <mxCell id="beTaWPcCnV1Fygs6UFOP-20" style="edgeStyle=orthogonalEdgeStyle;rounded=1;orthogonalLoop=1;jettySize=auto;html=1;entryX=0.75;entryY=0;entryDx=0;entryDy=0;exitX=0.796;exitY=1.005;exitDx=0;exitDy=0;exitPerimeter=0;" parent="1" source="0iJNT-V-MZooK8iTx7gU-1" target="beTaWPcCnV1Fygs6UFOP-17" edge="1">
          <mxGeometry relative="1" as="geometry">
            <mxPoint x="725" y="710" as="sourcePoint" />
            <Array as="points">
              <mxPoint x="724" y="800" />
              <mxPoint x="725" y="800" />
            </Array>
          </mxGeometry>
        </mxCell>
        <mxCell id="beTaWPcCnV1Fygs6UFOP-21" value="Оплата ПО и&amp;nbsp;&lt;div&gt;оборудования&lt;/div&gt;" style="edgeLabel;html=1;align=center;verticalAlign=middle;resizable=0;points=[];rounded=1;" parent="beTaWPcCnV1Fygs6UFOP-20" vertex="1" connectable="0">
          <mxGeometry x="-0.0021" relative="1" as="geometry">
            <mxPoint y="-7" as="offset" />
          </mxGeometry>
        </mxCell>
        <mxCell id="beTaWPcCnV1Fygs6UFOP-25" style="edgeStyle=orthogonalEdgeStyle;rounded=1;orthogonalLoop=1;jettySize=auto;html=1;entryX=1;entryY=0.75;entryDx=0;entryDy=0;" parent="1" edge="1">
          <mxGeometry relative="1" as="geometry">
            <mxPoint x="345" y="359.5" as="targetPoint" />
            <mxPoint x="515" y="528" as="sourcePoint" />
            <Array as="points">
              <mxPoint x="516" y="528" />
              <mxPoint x="516" y="360" />
            </Array>
          </mxGeometry>
        </mxCell>
        <mxCell id="beTaWPcCnV1Fygs6UFOP-26" value="&lt;font style=&quot;font-size: 15px;&quot;&gt;Отчёты и документы&lt;/font&gt;&lt;div style=&quot;font-size: 15px;&quot;&gt;&lt;font style=&quot;font-size: 15px;&quot;&gt;о деятельности компании&lt;/font&gt;&lt;/div&gt;" style="edgeLabel;html=1;align=center;verticalAlign=middle;resizable=0;points=[];rounded=1;" parent="beTaWPcCnV1Fygs6UFOP-25" vertex="1" connectable="0">
          <mxGeometry x="-0.4701" y="1" relative="1" as="geometry">
            <mxPoint x="-30" as="offset" />
          </mxGeometry>
        </mxCell>
        <mxCell id="0iJNT-V-MZooK8iTx7gU-1" value="&lt;font size=&quot;1&quot; style=&quot;&quot;&gt;&lt;b style=&quot;font-size: 20px;&quot;&gt;Система оказания&amp;nbsp;&lt;/b&gt;&lt;/font&gt;&lt;div&gt;&lt;font size=&quot;1&quot; style=&quot;&quot;&gt;&lt;b style=&quot;font-size: 20px;&quot;&gt;услуг веб-хостинга в IT компании&lt;/b&gt;&lt;/font&gt;&lt;/div&gt;" style="rounded=1;whiteSpace=wrap;html=1;strokeWidth=3;" parent="1" vertex="1">
          <mxGeometry x="465" y="530" width="325" height="210" as="geometry" />
        </mxCell>
        <mxCell id="0iJNT-V-MZooK8iTx7gU-3" value="&lt;h1 style=&quot;margin-top: 0px;&quot;&gt;Проблемная ситуация&lt;/h1&gt;&lt;p&gt;&lt;font style=&quot;font-size: 15px;&quot;&gt;Слабая удовлетворённость клиентов услугами веб-хостинга IT-компании&lt;/font&gt;&lt;/p&gt;" style="text;html=1;whiteSpace=wrap;overflow=hidden;rounded=1;" parent="1" vertex="1">
          <mxGeometry x="273" y="80" width="280" height="120" as="geometry" />
        </mxCell>
        <mxCell id="beTaWPcCnV1Fygs6UFOP-38" style="edgeStyle=orthogonalEdgeStyle;rounded=1;orthogonalLoop=1;jettySize=auto;html=1;exitX=1.004;exitY=0.058;exitDx=0;exitDy=0;exitPerimeter=0;entryX=0.015;entryY=0.048;entryDx=0;entryDy=0;entryPerimeter=0;" parent="1" source="beTaWPcCnV1Fygs6UFOP-1" target="0iJNT-V-MZooK8iTx7gU-1" edge="1">
          <mxGeometry relative="1" as="geometry">
            <mxPoint x="460" y="540" as="targetPoint" />
          </mxGeometry>
        </mxCell>
        <mxCell id="beTaWPcCnV1Fygs6UFOP-39" value="&lt;font style=&quot;font-size: 13px;&quot;&gt;Отзывы&lt;/font&gt;" style="edgeLabel;html=1;align=center;verticalAlign=middle;resizable=0;points=[];rounded=1;" parent="beTaWPcCnV1Fygs6UFOP-38" vertex="1" connectable="0">
          <mxGeometry x="-0.7073" y="1" relative="1" as="geometry">
            <mxPoint x="19" as="offset" />
          </mxGeometry>
        </mxCell>
        <mxCell id="beTaWPcCnV1Fygs6UFOP-1" value="&lt;span style=&quot;text-wrap-mode: nowrap; background-color: rgb(255, 255, 255);&quot;&gt;&lt;font style=&quot;font-size: 15px;&quot;&gt;Клиенты&lt;/font&gt;&lt;/span&gt;" style="rounded=1;whiteSpace=wrap;html=1;" parent="1" vertex="1">
          <mxGeometry x="90" y="480" width="150" height="340" as="geometry" />
        </mxCell>
        <mxCell id="beTaWPcCnV1Fygs6UFOP-3" style="edgeStyle=orthogonalEdgeStyle;rounded=1;orthogonalLoop=1;jettySize=auto;html=1;entryX=0;entryY=0.086;entryDx=0;entryDy=0;entryPerimeter=0;exitX=1;exitY=0.25;exitDx=0;exitDy=0;" parent="1" source="beTaWPcCnV1Fygs6UFOP-1" edge="1">
          <mxGeometry relative="1" as="geometry">
            <mxPoint x="230" y="565" as="sourcePoint" />
            <mxPoint x="465" y="565.0500000000001" as="targetPoint" />
            <Array as="points" />
          </mxGeometry>
        </mxCell>
        <mxCell id="beTaWPcCnV1Fygs6UFOP-27" value="&lt;font style=&quot;font-size: 13px;&quot;&gt;Информация о&lt;/font&gt;&lt;div style=&quot;font-size: 13px;&quot;&gt;&lt;font style=&quot;font-size: 13px;&quot;&gt;&lt;font style=&quot;font-size: 13px;&quot;&gt;выбранном тарифе&lt;/font&gt;&lt;/font&gt;&lt;/div&gt;" style="edgeLabel;html=1;align=center;verticalAlign=middle;resizable=0;points=[];rounded=1;" parent="beTaWPcCnV1Fygs6UFOP-3" vertex="1" connectable="0">
          <mxGeometry x="0.0975" relative="1" as="geometry">
            <mxPoint x="-14" y="-5" as="offset" />
          </mxGeometry>
        </mxCell>
        <mxCell id="beTaWPcCnV1Fygs6UFOP-22" style="edgeStyle=orthogonalEdgeStyle;rounded=1;orthogonalLoop=1;jettySize=auto;html=1;" parent="1" edge="1">
          <mxGeometry relative="1" as="geometry">
            <mxPoint x="345" y="330" as="sourcePoint" />
            <mxPoint x="612" y="530" as="targetPoint" />
            <Array as="points">
              <mxPoint x="345" y="330" />
              <mxPoint x="612" y="330" />
            </Array>
          </mxGeometry>
        </mxCell>
        <mxCell id="beTaWPcCnV1Fygs6UFOP-23" value="&lt;font style=&quot;font-size: 15px;&quot;&gt;Уведомления о проверках&lt;/font&gt;" style="edgeLabel;html=1;align=center;verticalAlign=middle;resizable=0;points=[];rounded=1;" parent="beTaWPcCnV1Fygs6UFOP-22" vertex="1" connectable="0">
          <mxGeometry x="-0.4894" y="1" relative="1" as="geometry">
            <mxPoint x="36" as="offset" />
          </mxGeometry>
        </mxCell>
        <mxCell id="beTaWPcCnV1Fygs6UFOP-5" value="&lt;font style=&quot;font-size: 15px;&quot;&gt;Гос органы (Роскомнадзор, Минцифры, Федеральная антимонопольная служба (ФАС) и др.)&amp;nbsp;&lt;/font&gt;" style="rounded=1;whiteSpace=wrap;html=1;" parent="1" vertex="1">
          <mxGeometry x="145" y="260" width="200" height="130" as="geometry" />
        </mxCell>
        <mxCell id="beTaWPcCnV1Fygs6UFOP-6" style="edgeStyle=orthogonalEdgeStyle;rounded=1;orthogonalLoop=1;jettySize=auto;html=1;entryX=0.594;entryY=0.005;entryDx=0;entryDy=0;entryPerimeter=0;" parent="1" target="0iJNT-V-MZooK8iTx7gU-1" edge="1">
          <mxGeometry relative="1" as="geometry">
            <mxPoint x="345" y="280" as="sourcePoint" />
            <mxPoint x="660" y="520" as="targetPoint" />
            <Array as="points">
              <mxPoint x="657" y="280" />
              <mxPoint x="657" y="430" />
              <mxPoint x="658" y="430" />
            </Array>
          </mxGeometry>
        </mxCell>
        <mxCell id="beTaWPcCnV1Fygs6UFOP-7" value="&lt;font style=&quot;font-size: 15px;&quot;&gt;Нормативные акты, регулирующие&lt;/font&gt;&lt;div style=&quot;font-size: 15px;&quot;&gt;&lt;font style=&quot;font-size: 15px;&quot;&gt;деятельность компании&lt;/font&gt;&lt;/div&gt;" style="edgeLabel;html=1;align=center;verticalAlign=middle;resizable=0;points=[];rounded=1;" parent="beTaWPcCnV1Fygs6UFOP-6" vertex="1" connectable="0">
          <mxGeometry x="-0.6288" y="-2" relative="1" as="geometry">
            <mxPoint x="71" y="2" as="offset" />
          </mxGeometry>
        </mxCell>
        <mxCell id="beTaWPcCnV1Fygs6UFOP-13" style="edgeStyle=orthogonalEdgeStyle;rounded=1;orthogonalLoop=1;jettySize=auto;html=1;exitX=1;exitY=0.25;exitDx=0;exitDy=0;entryX=0.078;entryY=0.993;entryDx=0;entryDy=0;entryPerimeter=0;" parent="1" source="beTaWPcCnV1Fygs6UFOP-12" target="0iJNT-V-MZooK8iTx7gU-1" edge="1">
          <mxGeometry relative="1" as="geometry">
            <Array as="points">
              <mxPoint x="490" y="900" />
            </Array>
          </mxGeometry>
        </mxCell>
        <mxCell id="beTaWPcCnV1Fygs6UFOP-14" value="&lt;font style=&quot;font-size: 13px;&quot;&gt;Информация о совершаемых&lt;/font&gt;&lt;div style=&quot;font-size: 13px;&quot;&gt;&lt;font style=&quot;font-size: 13px;&quot;&gt;действиях на рынке&lt;/font&gt;&lt;/div&gt;" style="edgeLabel;html=1;align=center;verticalAlign=middle;resizable=0;points=[];rounded=1;" parent="beTaWPcCnV1Fygs6UFOP-13" vertex="1" connectable="0">
          <mxGeometry x="-0.2514" y="1" relative="1" as="geometry">
            <mxPoint x="-33" y="-7" as="offset" />
          </mxGeometry>
        </mxCell>
        <mxCell id="beTaWPcCnV1Fygs6UFOP-12" value="&lt;font style=&quot;font-size: 15px;&quot;&gt;Компании-конкуренты&lt;/font&gt;" style="rounded=1;whiteSpace=wrap;html=1;" parent="1" vertex="1">
          <mxGeometry x="100" y="880" width="160" height="80" as="geometry" />
        </mxCell>
        <mxCell id="beTaWPcCnV1Fygs6UFOP-17" value="Поставщики ПО и оборудования" style="rounded=1;whiteSpace=wrap;html=1;" parent="1" vertex="1">
          <mxGeometry x="605" y="880" width="160" height="90" as="geometry" />
        </mxCell>
        <mxCell id="beTaWPcCnV1Fygs6UFOP-18" style="edgeStyle=orthogonalEdgeStyle;rounded=1;orthogonalLoop=1;jettySize=auto;html=1;exitX=0.25;exitY=0;exitDx=0;exitDy=0;entryX=0.447;entryY=1.007;entryDx=0;entryDy=0;entryPerimeter=0;" parent="1" source="beTaWPcCnV1Fygs6UFOP-17" target="0iJNT-V-MZooK8iTx7gU-1" edge="1">
          <mxGeometry relative="1" as="geometry">
            <mxPoint x="525" y="700" as="targetPoint" />
          </mxGeometry>
        </mxCell>
        <mxCell id="beTaWPcCnV1Fygs6UFOP-19" value="Оборудование,&lt;div&gt;ПО&lt;/div&gt;" style="edgeLabel;html=1;align=center;verticalAlign=middle;resizable=0;points=[];rounded=1;" parent="beTaWPcCnV1Fygs6UFOP-18" vertex="1" connectable="0">
          <mxGeometry x="-0.2505" relative="1" as="geometry">
            <mxPoint x="-9" y="34" as="offset" />
          </mxGeometry>
        </mxCell>
        <mxCell id="beTaWPcCnV1Fygs6UFOP-28" style="edgeStyle=orthogonalEdgeStyle;rounded=1;orthogonalLoop=1;jettySize=auto;html=1;entryX=-0.009;entryY=0.317;entryDx=0;entryDy=0;entryPerimeter=0;exitX=0.987;exitY=0.341;exitDx=0;exitDy=0;exitPerimeter=0;" parent="1" source="beTaWPcCnV1Fygs6UFOP-1" edge="1">
          <mxGeometry relative="1" as="geometry">
            <mxPoint x="270" y="596" as="sourcePoint" />
            <mxPoint x="464.9999999999999" y="596.0049999999999" as="targetPoint" />
          </mxGeometry>
        </mxCell>
        <mxCell id="beTaWPcCnV1Fygs6UFOP-29" value="&lt;font style=&quot;font-size: 13px;&quot;&gt;Жалобы&lt;/font&gt;" style="edgeLabel;html=1;align=center;verticalAlign=middle;resizable=0;points=[];rounded=1;" parent="beTaWPcCnV1Fygs6UFOP-28" vertex="1" connectable="0">
          <mxGeometry x="-0.0059" relative="1" as="geometry">
            <mxPoint as="offset" />
          </mxGeometry>
        </mxCell>
        <mxCell id="beTaWPcCnV1Fygs6UFOP-34" style="edgeStyle=orthogonalEdgeStyle;rounded=1;orthogonalLoop=1;jettySize=auto;html=1;exitX=0;exitY=0.5;exitDx=0;exitDy=0;entryX=1;entryY=0.474;entryDx=0;entryDy=0;entryPerimeter=0;" parent="1" source="0iJNT-V-MZooK8iTx7gU-1" target="beTaWPcCnV1Fygs6UFOP-1" edge="1">
          <mxGeometry relative="1" as="geometry">
            <mxPoint x="230" y="640" as="targetPoint" />
          </mxGeometry>
        </mxCell>
        <mxCell id="beTaWPcCnV1Fygs6UFOP-35" value="&lt;font style=&quot;font-size: 13px;&quot;&gt;Ответы на жалобы&lt;/font&gt;" style="edgeLabel;html=1;align=center;verticalAlign=middle;resizable=0;points=[];rounded=1;" parent="beTaWPcCnV1Fygs6UFOP-34" vertex="1" connectable="0">
          <mxGeometry x="-0.0114" y="-2" relative="1" as="geometry">
            <mxPoint x="-24" as="offset" />
          </mxGeometry>
        </mxCell>
        <mxCell id="beTaWPcCnV1Fygs6UFOP-36" style="edgeStyle=orthogonalEdgeStyle;rounded=1;orthogonalLoop=1;jettySize=auto;html=1;exitX=-0.003;exitY=0.843;exitDx=0;exitDy=0;entryX=1.02;entryY=0.944;entryDx=0;entryDy=0;entryPerimeter=0;exitPerimeter=0;" parent="1" source="0iJNT-V-MZooK8iTx7gU-1" target="beTaWPcCnV1Fygs6UFOP-1" edge="1">
          <mxGeometry relative="1" as="geometry">
            <mxPoint x="270" y="800" as="targetPoint" />
            <Array as="points">
              <mxPoint x="464" y="710" />
              <mxPoint x="435" y="710" />
              <mxPoint x="435" y="801" />
            </Array>
          </mxGeometry>
        </mxCell>
        <mxCell id="beTaWPcCnV1Fygs6UFOP-37" value="&lt;span style=&quot;font-size: 13px;&quot;&gt;Список тарифов&lt;/span&gt;" style="edgeLabel;html=1;align=center;verticalAlign=middle;resizable=0;points=[];rounded=1;" parent="beTaWPcCnV1Fygs6UFOP-36" vertex="1" connectable="0">
          <mxGeometry x="0.3135" y="1" relative="1" as="geometry">
            <mxPoint x="8" as="offset" />
          </mxGeometry>
        </mxCell>
        <mxCell id="IvriAxhTtM-LGHhBQWGD-1" style="edgeStyle=orthogonalEdgeStyle;rounded=1;orthogonalLoop=1;jettySize=auto;html=1;exitX=1.007;exitY=0.541;exitDx=0;exitDy=0;exitPerimeter=0;entryX=0.003;entryY=0.643;entryDx=0;entryDy=0;entryPerimeter=0;" parent="1" source="beTaWPcCnV1Fygs6UFOP-1" target="0iJNT-V-MZooK8iTx7gU-1" edge="1">
          <mxGeometry relative="1" as="geometry">
            <mxPoint x="460" y="664" as="targetPoint" />
          </mxGeometry>
        </mxCell>
        <mxCell id="IvriAxhTtM-LGHhBQWGD-2" value="&lt;font style=&quot;font-size: 13px;&quot;&gt;Запросы клиента&lt;/font&gt;" style="edgeLabel;html=1;align=center;verticalAlign=middle;resizable=0;points=[];rounded=1;" parent="IvriAxhTtM-LGHhBQWGD-1" vertex="1" connectable="0">
          <mxGeometry x="0.0432" y="-1" relative="1" as="geometry">
            <mxPoint as="offset" />
          </mxGeometry>
        </mxCell>
        <mxCell id="IvriAxhTtM-LGHhBQWGD-3" style="edgeStyle=orthogonalEdgeStyle;rounded=1;orthogonalLoop=1;jettySize=auto;html=1;entryX=1.007;entryY=0.597;entryDx=0;entryDy=0;entryPerimeter=0;" parent="1" target="beTaWPcCnV1Fygs6UFOP-1" edge="1">
          <mxGeometry relative="1" as="geometry">
            <mxPoint x="460" y="680" as="sourcePoint" />
          </mxGeometry>
        </mxCell>
        <mxCell id="IvriAxhTtM-LGHhBQWGD-4" value="&lt;span style=&quot;font-size: 13px;&quot;&gt;Ответы серверов&lt;/span&gt;" style="edgeLabel;html=1;align=center;verticalAlign=middle;resizable=0;points=[];rounded=1;" parent="IvriAxhTtM-LGHhBQWGD-3" vertex="1" connectable="0">
          <mxGeometry x="-0.0426" y="2" relative="1" as="geometry">
            <mxPoint as="offset" />
          </mxGeometry>
        </mxCell>
        <mxCell id="IvriAxhTtM-LGHhBQWGD-6" style="edgeStyle=orthogonalEdgeStyle;rounded=1;orthogonalLoop=1;jettySize=auto;html=1;exitX=1;exitY=0.75;exitDx=0;exitDy=0;entryX=-0.015;entryY=0.81;entryDx=0;entryDy=0;entryPerimeter=0;" parent="1" source="beTaWPcCnV1Fygs6UFOP-1" target="0iJNT-V-MZooK8iTx7gU-1" edge="1">
          <mxGeometry relative="1" as="geometry" />
        </mxCell>
        <mxCell id="IvriAxhTtM-LGHhBQWGD-7" value="&lt;span style=&quot;font-size: 13px;&quot;&gt;Оплата тарифа&lt;/span&gt;" style="edgeLabel;html=1;align=center;verticalAlign=middle;resizable=0;points=[];rounded=1;" parent="IvriAxhTtM-LGHhBQWGD-6" vertex="1" connectable="0">
          <mxGeometry x="0.0158" y="3" relative="1" as="geometry">
            <mxPoint x="1" as="offset" />
          </mxGeometry>
        </mxCell>
      </root>
    </mxGraphModel>
  </diagram>
</mxfile>
